<?xml version="1.0" encoding="UTF-8" standalone="no"?>
<svg
   width="20"
   height="20"
   viewBox="0 0 20 20"
   fill="none"
   version="1.1"
   id="svg23"
   xmlns="http://www.w3.org/2000/svg"
   xmlns:svg="http://www.w3.org/2000/svg">
  <g
     id="Group 51"
     transform="translate(-46,-2)">
    <path
       id="Vector_3"
       d="m 56,2 c 2.717,0 3.056,0.01 4.122,0.06 1.065,0.05 1.79,0.217 2.428,0.465 0.66,0.254 1.216,0.598 1.772,1.153 0.5085,0.4999 0.902,1.10459 1.153,1.772 0.247,0.637 0.415,1.363 0.465,2.428 C 65.987,8.944 66,9.283 66,12 c 0,2.717 -0.01,3.056 -0.06,4.122 -0.05,1.065 -0.218,1.79 -0.465,2.428 -0.2503,0.6678 -0.6439,1.2726 -1.153,1.772 -0.5,0.5083 -1.1047,0.9018 -1.772,1.153 -0.637,0.247 -1.363,0.415 -2.428,0.465 C 59.056,21.987 58.717,22 56,22 53.283,22 52.944,21.99 51.878,21.94 50.813,21.89 50.088,21.722 49.45,21.475 48.7823,21.2245 48.1775,20.8309 47.678,20.322 47.1694,19.8222 46.7759,19.2175 46.525,18.55 46.277,17.913 46.11,17.187 46.06,16.122 46.013,15.056 46,14.717 46,12 46,9.283 46.01,8.944 46.06,7.878 46.11,6.812 46.277,6.088 46.525,5.45 46.7752,4.78218 47.1688,4.17732 47.678,3.678 48.1777,3.16923 48.7824,2.77573 49.45,2.525 50.088,2.277 50.812,2.11 51.878,2.06 52.944,2.013 53.283,2 56,2 Z m 0,5 C 54.6739,7 53.4021,7.52678 52.4645,8.46447 51.5268,9.40215 51,10.6739 51,12 c 0,1.3261 0.5268,2.5979 1.4645,3.5355 C 53.4021,16.4732 54.6739,17 56,17 57.3261,17 58.5979,16.4732 59.5355,15.5355 60.4732,14.5979 61,13.3261 61,12 61,10.6739 60.4732,9.40215 59.5355,8.46447 58.5979,7.52678 57.3261,7 56,7 Z M 62.5,6.75 C 62.5,6.41848 62.3683,6.10054 62.1339,5.86612 61.8995,5.6317 61.5815,5.5 61.25,5.5 60.9185,5.5 60.6005,5.6317 60.3661,5.86612 60.1317,6.10054 60,6.41848 60,6.75 60,7.08152 60.1317,7.39946 60.3661,7.63388 60.6005,7.8683 60.9185,8 61.25,8 61.5815,8 61.8995,7.8683 62.1339,7.63388 62.3683,7.39946 62.5,7.08152 62.5,6.75 Z M 56,9 c 0.7956,0 1.5587,0.31607 2.1213,0.87868 C 58.6839,10.4413 59,11.2044 59,12 59,12.7956 58.6839,13.5587 58.1213,14.1213 57.5587,14.6839 56.7956,15 56,15 55.2044,15 54.4413,14.6839 53.8787,14.1213 53.3161,13.5587 53,12.7956 53,12 53,11.2044 53.3161,10.4413 53.8787,9.87868 54.4413,9.31607 55.2044,9 56,9 Z"
       fill="#ffffff" />
  </g>
  <defs
     id="defs21" />
</svg>
