<?xml version="1.0" encoding="UTF-8" standalone="no"?>
<svg
   width="20"
   height="16"
   viewBox="0 0 20 16"
   fill="none"
   version="1.1"
   id="svg23"
   xmlns="http://www.w3.org/2000/svg"
   xmlns:svg="http://www.w3.org/2000/svg">
  <g
     id="Group 52"
     transform="translate(-90,-4)">
    <path
       id="Vector_4"
       d="M 109.543,6.498 C 110,8.28 110,12 110,12 c 0,0 0,3.72 -0.457,5.502 -0.254,0.985 -0.997,1.76 -1.938,2.022 C 105.896,20 100,20 100,20 100,20 94.107,20 92.395,19.524 91.45,19.258 90.708,18.484 90.457,17.502 90,15.72 90,12 90,12 90,12 90,8.28 90.457,6.498 90.711,5.513 91.454,4.738 92.395,4.476 94.107,4 100,4 100,4 c 0,0 5.896,0 7.605,0.476 0.945,0.266 1.687,1.04 1.938,2.022 z M 98,15.5 104,12 98,8.5 Z"
       fill="#ffffff" />
  </g>
  <defs
     id="defs21" />
</svg>
