<svg width="24" height="24" viewBox="0 0 24 24" fill="none" xmlns="http://www.w3.org/2000/svg">
<g id="Group 52">
<path id="Vector_4" d="M109.543 6.498C110 8.28 110 12 110 12C110 12 110 15.72 109.543 17.502C109.289 18.487 108.546 19.262 107.605 19.524C105.896 20 100 20 100 20C100 20 94.107 20 92.395 19.524C91.45 19.258 90.708 18.484 90.457 17.502C90 15.72 90 12 90 12C90 12 90 8.28 90.457 6.498C90.711 5.513 91.454 4.738 92.395 4.476C94.107 4 100 4 100 4C100 4 105.896 4 107.605 4.476C108.55 4.742 109.292 5.516 109.543 6.498ZM98 15.5L104 12L98 8.5V15.5Z" fill="white"/>
</g>
</svg>


