<svg width="24" height="24" viewBox="0 0 24 24" fill="none" xmlns="http://www.w3.org/2000/svg">
<g id="Group 53">
<path id="Vector" d="M154.162 5.65593C153.399 5.99362 152.589 6.2154 151.76 6.31393C152.634 5.79136 153.288 4.96894 153.6 3.99993C152.78 4.48793 151.881 4.82993 150.944 5.01493C150.315 4.34151 149.48 3.89489 148.571 3.74451C147.662 3.59413 146.728 3.74842 145.915 4.18338C145.103 4.61834 144.456 5.30961 144.077 6.14972C143.698 6.98983 143.607 7.93171 143.818 8.82893C142.155 8.74558 140.528 8.31345 139.043 7.56059C137.558 6.80773 136.248 5.75097 135.198 4.45893C134.826 5.09738 134.631 5.82315 134.632 6.56193C134.632 8.01193 135.37 9.29293 136.492 10.0429C135.828 10.022 135.179 9.84271 134.598 9.51993V9.57193C134.598 10.5376 134.932 11.4735 135.544 12.221C136.155 12.9684 137.006 13.4814 137.953 13.6729C137.337 13.84 136.69 13.8646 136.063 13.7449C136.33 14.5762 136.85 15.3031 137.551 15.824C138.251 16.3449 139.097 16.6337 139.97 16.6499C139.102 17.3313 138.109 17.8349 137.047 18.1321C135.985 18.4293 134.874 18.5142 133.779 18.3819C135.691 19.6114 137.916 20.264 140.189 20.2619C147.882 20.2619 152.089 13.8889 152.089 8.36193C152.089 8.18193 152.084 7.99993 152.076 7.82193C152.895 7.23009 153.602 6.49695 154.163 5.65693L154.162 5.65593Z" fill="white"/>
</g>
</svg>