<?xml version="1.0" encoding="UTF-8" standalone="no"?>
<svg
   width="20.383987"
   height="16.573431"
   viewBox="0 0 20.383987 16.573431"
   fill="none"
   version="1.1"
   id="svg23"
   sodipodi:docname="Group 54 — копия.svg"
   xmlns:inkscape="http://www.inkscape.org/namespaces/inkscape"
   xmlns:sodipodi="http://sodipodi.sourceforge.net/DTD/sodipodi-0.dtd"
   xmlns="http://www.w3.org/2000/svg"
   xmlns:svg="http://www.w3.org/2000/svg">
  <sodipodi:namedview
     id="namedview25"
     pagecolor="#ffffff"
     bordercolor="#000000"
     borderopacity="0.25"
     inkscape:showpageshadow="2"
     inkscape:pageopacity="0.0"
     inkscape:pagecheckerboard="0"
     inkscape:deskcolor="#d1d1d1"
     showgrid="false"
     inkscape:lockguides="false" />
  <rect
     width="156"
     height="24"
     fill="#1e1e1e"
     id="rect2"
     x="-133.77901"
     y="-3.6884751" />
  <g
     id="Group 53"
     transform="translate(-133.77901,-3.6884751)">
    <path
       id="Vector"
       d="m 154.162,5.65593 c -0.763,0.33769 -1.573,0.55947 -2.402,0.658 0.874,-0.52257 1.528,-1.34499 1.84,-2.314 -0.82,0.488 -1.719,0.83 -2.656,1.015 -0.629,-0.67342 -1.464,-1.12004 -2.373,-1.27042 -0.909,-0.15038 -1.843,0.00391 -2.656,0.43887 -0.812,0.43496 -1.459,1.12623 -1.838,1.96634 -0.379,0.84011 -0.47,1.78199 -0.259,2.67921 -1.663,-0.08335 -3.29,-0.51548 -4.775,-1.26834 -1.485,-0.75286 -2.795,-1.80962 -3.845,-3.10166 -0.372,0.63845 -0.567,1.36422 -0.566,2.103 0,1.45 0.738,2.731 1.86,3.48097 -0.664,-0.0209 -1.313,-0.20019 -1.894,-0.52297 v 0.052 c 0,0.96567 0.334,1.90157 0.946,2.64907 0.611,0.7474 1.462,1.2604 2.409,1.4519 -0.616,0.1671 -1.263,0.1917 -1.89,0.072 0.267,0.8313 0.787,1.5582 1.488,2.0791 0.7,0.5209 1.546,0.8097 2.419,0.8259 -0.868,0.6814 -1.861,1.185 -2.923,1.4822 -1.062,0.2972 -2.173,0.3821 -3.268,0.2498 1.912,1.2295 4.137,1.8821 6.41,1.88 7.693,0 11.9,-6.373 11.9,-11.89997 0,-0.18 -0.005,-0.362 -0.013,-0.54 0.819,-0.59184 1.526,-1.32498 2.087,-2.165 z"
       fill="#ffffff" />
  </g>
  <defs
     id="defs21" />
</svg>
