<svg width="211" height="45" viewBox="0 0 211 45" fill="none" xmlns="http://www.w3.org/2000/svg">
<path d="M14.3701 37.708C13.3682 35.2295 12.665 32.8564 12.2607 30.5889C11.8564 28.3213 11.6543 26.1768 11.6543 24.1553C11.6543 23.8564 11.6543 23.5576 11.6543 23.2588C11.6543 22.96 11.6719 22.6611 11.707 22.3623C10.5469 22.2217 9.65918 21.9844 9.04395 21.6504C8.44629 21.2988 8.14746 20.8682 8.14746 20.3584C8.14746 19.8486 8.49902 19.4268 9.20215 19.0928C9.92285 18.7588 10.9072 18.5215 12.1553 18.3809C12.4365 16.6582 12.8057 15.1025 13.2627 13.7139C13.7197 12.3252 14.1592 11.1475 14.5811 10.1807C15.0205 9.19629 15.3984 8.44043 15.7148 7.91309C16.0312 7.36816 16.1895 7.07812 16.1895 7.04297L17.165 7.35938C17.0947 7.57031 16.9629 7.95703 16.7695 8.51953C16.5938 9.06445 16.3828 9.79395 16.1367 10.708C15.9082 11.6045 15.6709 12.6855 15.4248 13.9512C15.1787 15.1992 14.9678 16.623 14.792 18.2227H14.8447C16.1807 18.2227 17.499 18.293 18.7998 18.4336C20.1006 18.5566 21.3574 18.7676 22.5703 19.0664C23.3965 18.6094 24.1699 18.0908 24.8906 17.5107C25.6113 16.9131 26.2354 16.2627 26.7627 15.5596C27.3076 14.8389 27.7295 14.0654 28.0283 13.2393C28.3447 12.3955 28.5029 11.499 28.5029 10.5498C28.5029 9.23145 28.2744 8.08887 27.8174 7.12207C27.3604 6.15527 26.7715 5.3291 26.0508 4.64355C25.3477 3.94043 24.5479 3.36914 23.6514 2.92969C22.7549 2.49023 21.8672 2.14746 20.9883 1.90137C20.127 1.65527 19.3184 1.48828 18.5625 1.40039C17.8066 1.29492 17.2002 1.24219 16.7432 1.24219C15.0381 1.24219 13.4824 1.40039 12.0762 1.7168C10.6699 2.01562 9.4043 2.40234 8.2793 2.87695C7.17188 3.33398 6.20508 3.83496 5.37891 4.37988C4.55273 4.90723 3.86719 5.4082 3.32227 5.88281C2.77734 6.33984 2.36426 6.72656 2.08301 7.04297C1.81934 7.3418 1.67871 7.5 1.66113 7.51758L0.870117 6.8584C0.905273 6.80566 1.07227 6.60352 1.37109 6.25195C1.6875 5.90039 2.13574 5.4873 2.71582 5.0127C3.31348 4.52051 4.04297 3.99316 4.9043 3.43066C5.76562 2.86816 6.76758 2.3584 7.91016 1.90137C9.05273 1.42676 10.3271 1.03125 11.7334 0.714844C13.1572 0.398438 14.7217 0.240234 16.4268 0.240234C17.5693 0.240234 18.7383 0.319336 19.9336 0.477539C21.1465 0.618164 22.3154 0.855469 23.4404 1.18945C24.583 1.52344 25.6641 1.9541 26.6836 2.48145C27.7031 3.00879 28.5908 3.65039 29.3467 4.40625C30.1025 5.16211 30.7002 6.04102 31.1396 7.04297C31.5791 8.04492 31.7988 9.17871 31.7988 10.4443C31.7988 11.2881 31.6318 12.1318 31.2979 12.9756C30.9639 13.8193 30.4893 14.6455 29.874 15.4541C29.2588 16.2627 28.5205 17.0273 27.6592 17.748C26.7979 18.4688 25.8398 19.1279 24.7852 19.7256C25.9629 20.1475 27.0527 20.666 28.0547 21.2812C29.0566 21.8789 29.918 22.5908 30.6387 23.417C31.3594 24.2256 31.9219 25.1484 32.3262 26.1855C32.7305 27.2227 32.9326 28.3828 32.9326 29.666C32.9326 31.0371 32.6865 32.3379 32.1943 33.5684C31.7021 34.7988 31.0078 35.9326 30.1113 36.9697C29.2324 38.0068 28.1777 38.9385 26.9473 39.7646C25.7168 40.6084 24.3633 41.3203 22.8867 41.9004C21.4102 42.4805 19.8281 42.9199 18.1406 43.2188C16.4707 43.5352 14.748 43.6934 12.9727 43.6934C10.7402 43.6934 8.80664 43.4297 7.17188 42.9023C5.55469 42.3926 4.20996 41.707 3.1377 40.8457C2.08301 39.9844 1.29199 39 0.764648 37.8926C0.254883 36.7676 0 35.6074 0 34.4121C0 33.6387 0.114258 32.9092 0.342773 32.2236C0.588867 31.5205 0.922852 30.8789 1.34473 30.2988C1.78418 29.7012 2.31152 29.1826 2.92676 28.7432C3.54199 28.2861 4.23633 27.9258 5.00977 27.6621L5.35254 28.4795C4.68457 28.7256 4.12207 29.0947 3.66504 29.5869C3.22559 30.0791 2.86523 30.6152 2.58398 31.1953C2.32031 31.7754 2.12695 32.3643 2.00391 32.9619C1.89844 33.5596 1.8457 34.0781 1.8457 34.5176C1.8457 35.0449 1.91602 35.6162 2.05664 36.2314C2.19727 36.8467 2.43457 37.4531 2.76855 38.0508C3.10254 38.6484 3.54199 39.2285 4.08691 39.791C4.64941 40.3535 5.34375 40.8457 6.16992 41.2676C6.99609 41.6895 7.97168 42.0234 9.09668 42.2695C10.2217 42.5332 11.5137 42.665 12.9727 42.665C14.0977 42.665 15.3018 42.542 16.585 42.2959C17.8682 42.0674 19.1338 41.7158 20.3818 41.2412C21.6299 40.7666 22.8252 40.1777 23.9678 39.4746C25.1104 38.7715 26.1211 37.9453 27 36.9961C27.8789 36.0469 28.5732 34.9834 29.083 33.8057C29.6104 32.6279 29.874 31.3359 29.874 29.9297C29.874 28.6641 29.6982 27.5391 29.3467 26.5547C28.9951 25.5703 28.5029 24.7002 27.8701 23.9443C27.2549 23.1885 26.5342 22.5469 25.708 22.0195C24.8818 21.4746 23.9941 21.0176 23.0449 20.6484C21.7441 21.2109 20.373 21.6592 18.9316 21.9932C17.5078 22.3096 16.0225 22.4678 14.4756 22.4678C14.4404 23.083 14.4141 23.7246 14.3965 24.3926C14.3789 25.043 14.3701 25.7197 14.3701 26.4229C14.3701 28.1104 14.458 29.877 14.6338 31.7227C14.8096 33.5684 15.0645 35.5107 15.3984 37.5498L14.3701 37.708ZM14.5283 21.3867C15.46 21.3516 16.4619 21.2197 17.5342 20.9912C18.624 20.7451 19.7051 20.3936 20.7773 19.9365C19.7754 19.6904 18.7646 19.5146 17.7451 19.4092C16.7432 19.2861 15.7764 19.2246 14.8447 19.2246H14.6865C14.6514 19.5762 14.625 19.9365 14.6074 20.3057C14.5898 20.6572 14.5635 21.0176 14.5283 21.3867ZM9.22852 20.4111C9.22852 20.5342 9.42188 20.6836 9.80859 20.8594C10.1953 21.0352 10.8457 21.1758 11.7598 21.2812C11.7949 20.9648 11.8301 20.6484 11.8652 20.332C11.9004 20.0156 11.9443 19.708 11.9971 19.4092C10.9951 19.5498 10.2832 19.7256 9.86133 19.9365C9.43945 20.1475 9.22852 20.3057 9.22852 20.4111ZM43.8486 38.6309C42.9521 38.6309 42.0908 38.4727 41.2646 38.1562C40.4385 37.8398 39.709 37.3652 39.0762 36.7324C38.4609 36.082 37.9688 35.2734 37.5996 34.3066C37.2305 33.3398 37.0459 32.2061 37.0459 30.9053C37.0459 29.3232 37.2744 27.917 37.7314 26.6865C38.1885 25.4385 38.7686 24.3926 39.4717 23.5488C40.1924 22.6875 40.9922 22.0371 41.8711 21.5977C42.75 21.1406 43.6113 20.9121 44.4551 20.9121C45.5449 20.9121 46.4062 21.2725 47.0391 21.9932C47.6895 22.7139 48.0146 23.6455 48.0146 24.7881C48.0146 25.7725 47.8301 26.6689 47.4609 27.4775C47.0918 28.2686 46.5996 28.9541 45.9844 29.5342C45.3867 30.0967 44.6924 30.5361 43.9014 30.8525C43.1279 31.1689 42.3193 31.3271 41.4756 31.3271C41.0713 31.3271 40.6846 31.3096 40.3154 31.2744C39.9639 31.2217 39.6475 31.1689 39.3662 31.1162C39.4717 32.2061 39.6826 33.1465 39.999 33.9375C40.3154 34.7285 40.7109 35.3789 41.1855 35.8887C41.6602 36.3984 42.1875 36.7764 42.7676 37.0225C43.3652 37.2686 43.9805 37.3916 44.6133 37.3916C45.4043 37.3916 46.1338 37.1982 46.8018 36.8115C47.4697 36.4248 48.085 35.9238 48.6475 35.3086C49.21 34.6758 49.7197 33.9551 50.1768 33.1465C50.6514 32.3379 51.0732 31.5205 51.4424 30.6943C51.8115 29.8506 52.1367 29.0332 52.418 28.2422C52.7168 27.4336 52.9805 26.7217 53.209 26.1064L54.2373 26.3701C54.0088 26.9502 53.7363 27.6533 53.4199 28.4795C53.1211 29.3057 52.7695 30.1758 52.3652 31.0898C51.9609 31.9863 51.4863 32.8916 50.9414 33.8057C50.3965 34.7021 49.7812 35.5107 49.0957 36.2314C48.4102 36.9346 47.6279 37.5146 46.749 37.9717C45.8877 38.4111 44.9209 38.6309 43.8486 38.6309ZM44.5078 21.9404C43.8574 21.9404 43.2158 22.1514 42.583 22.5732C41.9678 22.9775 41.4141 23.54 40.9219 24.2607C40.4297 24.9814 40.0254 25.834 39.709 26.8184C39.4102 27.8027 39.2607 28.8574 39.2607 29.9824C39.4893 30.0703 39.8057 30.1494 40.21 30.2197C40.6318 30.2725 41.1416 30.2988 41.7393 30.2988C42.3721 30.2988 42.9961 30.167 43.6113 29.9033C44.2441 29.6221 44.8066 29.2441 45.2988 28.7695C45.8086 28.2773 46.2129 27.6973 46.5117 27.0293C46.8281 26.3613 46.9863 25.6318 46.9863 24.8408C46.9863 24.4541 46.9336 24.085 46.8281 23.7334C46.7227 23.3818 46.5645 23.0742 46.3535 22.8105C46.1426 22.5469 45.8789 22.3359 45.5625 22.1777C45.2637 22.0195 44.9121 21.9404 44.5078 21.9404ZM73.5117 26.3701C72.791 28.3213 72.1318 29.9561 71.5342 31.2744C70.9541 32.5928 70.3828 33.6562 69.8203 34.4648C69.2754 35.2734 68.7305 35.8535 68.1855 36.2051C67.6406 36.5566 67.043 36.7324 66.3926 36.7324C65.6016 36.7324 64.9248 36.46 64.3623 35.915C63.7998 35.3525 63.4482 34.4912 63.3076 33.3311C62.7451 34.5439 62.0156 35.5371 61.1191 36.3105C60.2227 37.0664 59.0977 37.4443 57.7441 37.4443C57.0234 37.4443 56.3291 37.3125 55.6611 37.0488C55.0107 36.7852 54.4307 36.3809 53.9209 35.8359C53.4111 35.2734 52.998 34.5703 52.6816 33.7266C52.3828 32.8828 52.2334 31.8896 52.2334 30.7471C52.2334 29.5869 52.374 28.4971 52.6553 27.4775C52.9541 26.458 53.3408 25.5264 53.8154 24.6826C54.29 23.8213 54.835 23.0566 55.4502 22.3887C56.083 21.7207 56.7334 21.1582 57.4014 20.7012C58.0693 20.2441 58.7373 19.8926 59.4053 19.6465C60.0732 19.4004 60.6885 19.2773 61.251 19.2773C61.7432 19.2773 62.2178 19.3389 62.6748 19.4619C63.1318 19.585 63.5361 19.7871 63.8877 20.0684C64.2568 20.332 64.5469 20.6924 64.7578 21.1494C64.9863 21.6064 65.1006 22.1777 65.1006 22.8633C65.1006 23.6719 64.9424 24.375 64.626 24.9727C64.3271 25.5703 63.958 26.0713 63.5186 26.4756C63.0967 26.8799 62.6572 27.2051 62.2002 27.4512C61.7607 27.6973 61.4092 27.873 61.1455 27.9785L60.8291 26.9502C60.8818 26.9502 61.0752 26.8799 61.4092 26.7393C61.7607 26.5986 62.1211 26.3701 62.4902 26.0537C62.877 25.7197 63.2285 25.2979 63.5449 24.7881C63.8613 24.2783 64.0195 23.6543 64.0195 22.916C64.0195 22.0723 63.7822 21.4307 63.3076 20.9912C62.833 20.5342 62.2266 20.3057 61.4883 20.3057C60.9258 20.3057 60.2666 20.5078 59.5107 20.9121C58.7549 21.3164 58.0254 21.9492 57.3223 22.8105C56.6367 23.6719 56.0479 24.7617 55.5557 26.0801C55.0811 27.3984 54.8438 28.9717 54.8438 30.7998C54.8438 32.6104 55.1602 33.9902 55.793 34.9395C56.4434 35.8887 57.3135 36.3633 58.4033 36.3633C58.9482 36.3633 59.4668 36.2139 59.959 35.915C60.4688 35.5986 60.9346 35.1855 61.3564 34.6758C61.7783 34.166 62.1562 33.5771 62.4902 32.9092C62.8242 32.2236 63.1143 31.5205 63.3604 30.7998C63.3604 30.2373 63.4219 29.5781 63.5449 28.8223C63.6855 28.0488 63.8965 27.2666 64.1777 26.4756L65.7861 27.0029C65.6982 27.2314 65.6104 27.5303 65.5225 27.8994C65.4346 28.2686 65.3467 28.6729 65.2588 29.1123C65.1885 29.5518 65.127 30.0088 65.0742 30.4834C65.0215 30.9404 64.9951 31.3887 64.9951 31.8281C64.9951 33.1992 65.127 34.1484 65.3906 34.6758C65.6719 35.1855 66.1465 35.4404 66.8145 35.4404C67.2012 35.4404 67.5791 35.2998 67.9482 35.0186C68.335 34.7373 68.748 34.2451 69.1875 33.542C69.627 32.8389 70.1104 31.8896 70.6377 30.6943C71.165 29.4814 71.7803 27.9521 72.4834 26.1064L73.5117 26.3701ZM72.5098 26.1064C72.7734 25.4209 73.0547 24.7705 73.3535 24.1553C73.6699 23.5225 74.0039 22.9688 74.3555 22.4941C74.707 22.0195 75.085 21.6416 75.4893 21.3604C75.9111 21.0615 76.377 20.9121 76.8867 20.9121C77.1328 20.9121 77.4141 20.9648 77.7305 21.0703C78.0469 21.1758 78.3457 21.3867 78.627 21.7031C78.9258 22.0195 79.1719 22.4766 79.3652 23.0742C79.5586 23.6719 79.6553 24.4629 79.6553 25.4473C79.6553 25.957 79.6289 26.5195 79.5762 27.1348C79.5234 27.75 79.4707 28.3564 79.418 28.9541C79.9629 27.7939 80.499 26.8184 81.0264 26.0273C81.5713 25.2188 82.0986 24.5771 82.6084 24.1025C83.1357 23.6104 83.6543 23.2588 84.1641 23.0479C84.6738 22.8193 85.1836 22.7051 85.6934 22.7051C85.9219 22.7051 86.1855 22.7578 86.4844 22.8633C86.8008 22.9688 87.0908 23.1533 87.3545 23.417C87.6357 23.6807 87.8643 24.041 88.04 24.498C88.2334 24.9551 88.3301 25.5439 88.3301 26.2646C88.3301 26.8447 88.2861 27.4248 88.1982 28.0049C88.1104 28.585 88.0137 29.1475 87.9082 29.6924C87.8027 30.2373 87.7061 30.7559 87.6182 31.248C87.5303 31.7227 87.4863 32.1445 87.4863 32.5137C87.4863 33.3926 87.6445 34.0693 87.9609 34.5439C88.2773 35.001 88.7607 35.2295 89.4111 35.2295C89.9385 35.2295 90.4395 35.0361 90.9141 34.6494C91.3887 34.2451 91.8281 33.7354 92.2324 33.1201C92.6543 32.5049 93.0322 31.8281 93.3662 31.0898C93.7178 30.3516 94.0166 29.6484 94.2627 28.9805C94.5264 28.2949 94.7461 27.6973 94.9219 27.1875C95.0977 26.6602 95.2207 26.2998 95.291 26.1064L96.3193 26.3701C96.0732 26.9854 95.8096 27.6709 95.5283 28.4268C95.2646 29.165 94.9658 29.9121 94.6318 30.668C94.2979 31.4238 93.9375 32.1621 93.5508 32.8828C93.1641 33.5859 92.7334 34.21 92.2588 34.7549C91.7842 35.2998 91.2656 35.7393 90.7031 36.0732C90.1582 36.4072 89.5518 36.5742 88.8838 36.5742C88.3213 36.5742 87.8291 36.4688 87.4072 36.2578C87.0029 36.0293 86.6602 35.7305 86.3789 35.3613C86.0977 34.9922 85.8867 34.5527 85.7461 34.043C85.6055 33.5332 85.5352 32.9883 85.5352 32.4082C85.5352 31.7578 85.5879 31.0898 85.6934 30.4043C85.8164 29.7188 85.9395 29.0596 86.0625 28.4268C86.2031 27.7939 86.3262 27.2139 86.4316 26.6865C86.5547 26.1416 86.6162 25.6934 86.6162 25.3418C86.6162 24.7969 86.5107 24.3926 86.2998 24.1289C86.0889 23.8477 85.7988 23.707 85.4297 23.707C84.9199 23.707 84.4189 23.8916 83.9268 24.2607C83.4521 24.6299 82.9863 25.1221 82.5293 25.7373C82.0898 26.3525 81.668 27.0557 81.2637 27.8467C80.8594 28.6377 80.4814 29.4551 80.1299 30.2988C79.7959 31.125 79.4795 31.9512 79.1807 32.7773C78.8994 33.6035 78.6533 34.3506 78.4424 35.0186C78.2314 35.6865 78.0469 36.2578 77.8887 36.7324C77.748 37.1895 77.6514 37.4795 77.5986 37.6025L76.0693 37.3389C76.2803 36.3018 76.4736 35.2119 76.6494 34.0693C76.8252 32.9092 76.9746 31.7754 77.0977 30.668C77.2383 29.543 77.3438 28.4707 77.4141 27.4512C77.502 26.4316 77.5459 25.5264 77.5459 24.7354C77.5459 23.6631 77.4756 22.9424 77.335 22.5732C77.1943 22.1865 76.9395 21.9932 76.5703 21.9932C76.2539 21.9932 75.9551 22.1162 75.6738 22.3623C75.3926 22.5908 75.1289 22.9072 74.8828 23.3115C74.6543 23.6982 74.4258 24.1553 74.1973 24.6826C73.9688 25.21 73.749 25.7725 73.5381 26.3701L72.5098 26.1064ZM112.509 11.6309C112.509 12.6152 112.711 13.5029 113.115 14.2939C113.52 15.0674 114.064 15.7793 114.75 16.4297C115.436 17.0625 116.235 17.6514 117.149 18.1963C118.081 18.7236 119.065 19.2422 120.103 19.752C121.14 20.2441 122.203 20.7363 123.293 21.2285C124.4 21.7031 125.473 22.2129 126.51 22.7578C127.547 23.2852 128.522 23.8652 129.437 24.498C130.368 25.1133 131.177 25.8076 131.862 26.5811C132.548 27.3369 133.093 28.1895 133.497 29.1387C133.901 30.0703 134.104 31.125 134.104 32.3027C134.104 34.4473 133.699 36.3105 132.891 37.8926C132.082 39.457 131.001 40.749 129.647 41.7686C128.294 42.8057 126.721 43.5703 124.928 44.0625C123.135 44.5723 121.263 44.8271 119.312 44.8271C117.589 44.8271 115.963 44.5986 114.434 44.1416C112.904 43.7021 111.56 43.0781 110.399 42.2695C109.239 41.4785 108.316 40.5205 107.631 39.3955C106.963 38.2881 106.629 37.0752 106.629 35.7568C106.629 34.5967 106.805 33.6123 107.156 32.8037C107.525 31.9775 107.921 31.3008 108.343 30.7734C108.782 30.2461 109.195 29.8594 109.582 29.6133C109.969 29.3672 110.188 29.2354 110.241 29.2178L110.821 30.457C110.786 30.4746 110.619 30.5889 110.32 30.7998C110.021 30.9932 109.696 31.3008 109.345 31.7227C109.011 32.1445 108.694 32.6895 108.396 33.3574C108.114 34.0078 107.974 34.8076 107.974 35.7568C107.974 36.7061 108.149 37.5586 108.501 38.3145C108.87 39.0527 109.354 39.7031 109.951 40.2656C110.566 40.8281 111.261 41.3115 112.034 41.7158C112.825 42.1201 113.643 42.4453 114.486 42.6914C115.33 42.9551 116.174 43.1396 117.018 43.2451C117.861 43.3682 118.644 43.4297 119.364 43.4297C121.228 43.4297 122.915 43.1924 124.427 42.7178C125.938 42.2607 127.222 41.6191 128.276 40.793C129.349 39.9844 130.175 39.0439 130.755 37.9717C131.335 36.8818 131.625 35.7129 131.625 34.4648C131.625 33.0586 131.326 31.8457 130.729 30.8262C130.131 29.8066 129.34 28.9102 128.355 28.1367C127.371 27.3457 126.246 26.6426 124.98 26.0273C123.732 25.3945 122.449 24.7793 121.131 24.1816C119.83 23.584 118.547 22.96 117.281 22.3096C116.033 21.6416 114.917 20.877 113.933 20.0156C112.948 19.1543 112.157 18.1611 111.56 17.0361C110.962 15.8936 110.663 14.54 110.663 12.9756C110.663 11.2354 110.953 9.64453 111.533 8.20312C112.131 6.76172 112.939 5.52246 113.959 4.48535C114.996 3.43066 116.209 2.62207 117.598 2.05957C118.986 1.47949 120.489 1.18945 122.106 1.18945C123.741 1.18945 125.174 1.38281 126.404 1.76953C127.635 2.13867 128.663 2.66602 129.489 3.35156C130.333 4.01953 130.957 4.82812 131.361 5.77734C131.783 6.72656 131.994 7.77246 131.994 8.91504C131.994 9.84668 131.88 10.7607 131.651 11.6572C131.44 12.5361 131.203 13.3271 130.939 14.0303C130.676 14.7334 130.43 15.3047 130.201 15.7441C129.973 16.1836 129.85 16.4297 129.832 16.4824L128.646 15.8232C128.646 15.8057 128.742 15.5947 128.936 15.1904C129.146 14.7861 129.375 14.2588 129.621 13.6084C129.867 12.958 130.087 12.2285 130.28 11.4199C130.491 10.5938 130.597 9.75879 130.597 8.91504C130.597 7.96582 130.421 7.10449 130.069 6.33105C129.735 5.54004 129.217 4.87207 128.514 4.32715C127.811 3.78223 126.923 3.36035 125.851 3.06152C124.778 2.7627 123.513 2.61328 122.054 2.61328C120.7 2.61328 119.443 2.8418 118.283 3.29883C117.123 3.73828 116.112 4.3623 115.251 5.1709C114.407 5.97949 113.739 6.9375 113.247 8.04492C112.755 9.13477 112.509 10.3301 112.509 11.6309ZM145.336 25.2891C145.336 24.2344 145.582 23.3203 146.074 22.5469C146.584 21.7734 147.234 21.0264 148.025 20.3057C147.779 20.1475 147.516 20.0332 147.234 19.9629C146.953 19.875 146.681 19.8311 146.417 19.8311C145.837 19.8311 145.213 19.9805 144.545 20.2793C143.895 20.5605 143.288 21.0439 142.726 21.7295C142.181 22.415 141.724 23.3379 141.354 24.498C140.985 25.6406 140.801 27.0732 140.801 28.7959C140.801 30.2197 140.968 31.4414 141.302 32.4609C141.653 33.4805 142.128 34.3242 142.726 34.9922C143.323 35.6426 144.018 36.126 144.809 36.4424C145.6 36.7412 146.443 36.8906 147.34 36.8906C148.412 36.8906 149.37 36.6182 150.214 36.0732C151.058 35.5107 151.831 34.7461 152.534 33.7793C153.237 32.7949 153.888 31.6523 154.485 30.3516C155.101 29.0332 155.707 27.6182 156.305 26.1064L157.307 26.3701C156.955 27.2314 156.586 28.1191 156.199 29.0332C155.83 29.9473 155.417 30.8525 154.96 31.749C154.521 32.6279 154.028 33.4629 153.483 34.2539C152.956 35.0449 152.341 35.7393 151.638 36.3369C150.952 36.9346 150.179 37.4092 149.317 37.7607C148.456 38.1123 147.489 38.2881 146.417 38.2881C145.327 38.2881 144.29 38.1123 143.306 37.7607C142.339 37.3916 141.486 36.8467 140.748 36.126C140.01 35.3877 139.421 34.4648 138.981 33.3574C138.542 32.25 138.322 30.9492 138.322 29.4551C138.322 27.9434 138.568 26.5371 139.061 25.2363C139.57 23.9355 140.212 22.8105 140.985 21.8613C141.759 20.9121 142.611 20.165 143.543 19.6201C144.475 19.0752 145.362 18.8027 146.206 18.8027C147.19 18.8027 148.069 19.0576 148.843 19.5674C148.983 19.4619 149.115 19.3564 149.238 19.251C149.379 19.1279 149.52 18.9961 149.66 18.8555L150.24 19.6729C150.135 19.7783 150.029 19.875 149.924 19.9629C149.818 20.0508 149.713 20.1475 149.607 20.2529C149.924 20.6396 150.179 21.0967 150.372 21.624C150.583 22.1514 150.688 22.7402 150.688 23.3906C150.688 24.1113 150.601 24.7529 150.425 25.3154C150.267 25.8604 150.038 26.3262 149.739 26.7129C149.458 27.0996 149.133 27.3896 148.764 27.583C148.395 27.7764 148.008 27.873 147.604 27.873C147.393 27.873 147.155 27.8291 146.892 27.7412C146.628 27.6357 146.382 27.4863 146.153 27.293C145.925 27.082 145.731 26.8184 145.573 26.502C145.415 26.168 145.336 25.7637 145.336 25.2891ZM149.607 23.3906C149.607 22.8809 149.528 22.4238 149.37 22.0195C149.229 21.6152 149.036 21.2637 148.79 20.9648C148.14 21.5273 147.577 22.1602 147.103 22.8633C146.646 23.5488 146.417 24.3574 146.417 25.2891C146.417 25.7812 146.54 26.168 146.786 26.4492C147.032 26.7129 147.322 26.8447 147.656 26.8447C148.043 26.8447 148.359 26.7217 148.605 26.4756C148.869 26.2295 149.071 25.9307 149.212 25.5791C149.353 25.21 149.449 24.832 149.502 24.4453C149.572 24.041 149.607 23.6895 149.607 23.3906ZM162.079 38.6309C161.183 38.6309 160.321 38.4727 159.495 38.1562C158.669 37.8398 157.939 37.3652 157.307 36.7324C156.691 36.082 156.199 35.2734 155.83 34.3066C155.461 33.3398 155.276 32.2061 155.276 30.9053C155.276 29.3232 155.505 27.917 155.962 26.6865C156.419 25.4385 156.999 24.3926 157.702 23.5488C158.423 22.6875 159.223 22.0371 160.102 21.5977C160.98 21.1406 161.842 20.9121 162.686 20.9121C163.775 20.9121 164.637 21.2725 165.27 21.9932C165.92 22.7139 166.245 23.6455 166.245 24.7881C166.245 25.7725 166.061 26.6689 165.691 27.4775C165.322 28.2686 164.83 28.9541 164.215 29.5342C163.617 30.0967 162.923 30.5361 162.132 30.8525C161.358 31.1689 160.55 31.3271 159.706 31.3271C159.302 31.3271 158.915 31.3096 158.546 31.2744C158.194 31.2217 157.878 31.1689 157.597 31.1162C157.702 32.2061 157.913 33.1465 158.229 33.9375C158.546 34.7285 158.941 35.3789 159.416 35.8887C159.891 36.3984 160.418 36.7764 160.998 37.0225C161.596 37.2686 162.211 37.3916 162.844 37.3916C163.635 37.3916 164.364 37.1982 165.032 36.8115C165.7 36.4248 166.315 35.9238 166.878 35.3086C167.44 34.6758 167.95 33.9551 168.407 33.1465C168.882 32.3379 169.304 31.5205 169.673 30.6943C170.042 29.8506 170.367 29.0332 170.648 28.2422C170.947 27.4336 171.211 26.7217 171.439 26.1064L172.468 26.3701C172.239 26.9502 171.967 27.6533 171.65 28.4795C171.352 29.3057 171 30.1758 170.596 31.0898C170.191 31.9863 169.717 32.8916 169.172 33.8057C168.627 34.7021 168.012 35.5107 167.326 36.2314C166.641 36.9346 165.858 37.5146 164.979 37.9717C164.118 38.4111 163.151 38.6309 162.079 38.6309ZM162.738 21.9404C162.088 21.9404 161.446 22.1514 160.813 22.5732C160.198 22.9775 159.645 23.54 159.152 24.2607C158.66 24.9814 158.256 25.834 157.939 26.8184C157.641 27.8027 157.491 28.8574 157.491 29.9824C157.72 30.0703 158.036 30.1494 158.44 30.2197C158.862 30.2725 159.372 30.2988 159.97 30.2988C160.603 30.2988 161.227 30.167 161.842 29.9033C162.475 29.6221 163.037 29.2441 163.529 28.7695C164.039 28.2773 164.443 27.6973 164.742 27.0293C165.059 26.3613 165.217 25.6318 165.217 24.8408C165.217 24.4541 165.164 24.085 165.059 23.7334C164.953 23.3818 164.795 23.0742 164.584 22.8105C164.373 22.5469 164.109 22.3359 163.793 22.1777C163.494 22.0195 163.143 21.9404 162.738 21.9404ZM171.439 26.1064C171.703 25.4209 171.984 24.7705 172.283 24.1553C172.6 23.5225 172.934 22.9688 173.285 22.4941C173.637 22.0195 174.015 21.6416 174.419 21.3604C174.841 21.0615 175.307 20.9121 175.816 20.9121C176.062 20.9121 176.344 20.9648 176.66 21.0703C176.977 21.1758 177.275 21.3867 177.557 21.7031C177.855 22.0195 178.102 22.4766 178.295 23.0742C178.488 23.6719 178.585 24.4629 178.585 25.4473C178.585 25.957 178.559 26.5195 178.506 27.1348C178.453 27.75 178.4 28.3564 178.348 28.9541C178.893 27.7939 179.429 26.8184 179.956 26.0273C180.501 25.2188 181.028 24.5771 181.538 24.1025C182.065 23.6104 182.584 23.2588 183.094 23.0479C183.604 22.8193 184.113 22.7051 184.623 22.7051C184.852 22.7051 185.115 22.7578 185.414 22.8633C185.73 22.9688 186.021 23.1533 186.284 23.417C186.565 23.6807 186.794 24.041 186.97 24.498C187.163 24.9551 187.26 25.5439 187.26 26.2646C187.26 26.8447 187.216 27.4248 187.128 28.0049C187.04 28.585 186.943 29.1475 186.838 29.6924C186.732 30.2373 186.636 30.7559 186.548 31.248C186.46 31.7227 186.416 32.1445 186.416 32.5137C186.416 33.3926 186.574 34.0693 186.891 34.5439C187.207 35.001 187.69 35.2295 188.341 35.2295C188.868 35.2295 189.369 35.0361 189.844 34.6494C190.318 34.2451 190.758 33.7354 191.162 33.1201C191.584 32.5049 191.962 31.8281 192.296 31.0898C192.647 30.3516 192.946 29.6484 193.192 28.9805C193.456 28.2949 193.676 27.6973 193.852 27.1875C194.027 26.6602 194.15 26.2998 194.221 26.1064L195.249 26.3701C195.003 26.9854 194.739 27.6709 194.458 28.4268C194.194 29.165 193.896 29.9121 193.562 30.668C193.228 31.4238 192.867 32.1621 192.48 32.8828C192.094 33.5859 191.663 34.21 191.188 34.7549C190.714 35.2998 190.195 35.7393 189.633 36.0732C189.088 36.4072 188.481 36.5742 187.813 36.5742C187.251 36.5742 186.759 36.4688 186.337 36.2578C185.933 36.0293 185.59 35.7305 185.309 35.3613C185.027 34.9922 184.816 34.5527 184.676 34.043C184.535 33.5332 184.465 32.9883 184.465 32.4082C184.465 31.7578 184.518 31.0898 184.623 30.4043C184.746 29.7188 184.869 29.0596 184.992 28.4268C185.133 27.7939 185.256 27.2139 185.361 26.6865C185.484 26.1416 185.546 25.6934 185.546 25.3418C185.546 24.7969 185.44 24.3926 185.229 24.1289C185.019 23.8477 184.729 23.707 184.359 23.707C183.85 23.707 183.349 23.8916 182.856 24.2607C182.382 24.6299 181.916 25.1221 181.459 25.7373C181.02 26.3525 180.598 27.0557 180.193 27.8467C179.789 28.6377 179.411 29.4551 179.06 30.2988C178.726 31.125 178.409 31.9512 178.11 32.7773C177.829 33.6035 177.583 34.3506 177.372 35.0186C177.161 35.6865 176.977 36.2578 176.818 36.7324C176.678 37.1895 176.581 37.4795 176.528 37.6025L174.999 37.3389C175.21 36.3018 175.403 35.2119 175.579 34.0693C175.755 32.9092 175.904 31.7754 176.027 30.668C176.168 29.543 176.273 28.4707 176.344 27.4512C176.432 26.4316 176.476 25.5264 176.476 24.7354C176.476 23.6631 176.405 22.9424 176.265 22.5732C176.124 22.1865 175.869 21.9932 175.5 21.9932C175.184 21.9932 174.885 22.1162 174.604 22.3623C174.322 22.5908 174.059 22.9072 173.812 23.3115C173.584 23.6982 173.355 24.1553 173.127 24.6826C172.898 25.21 172.679 25.7725 172.468 26.3701L171.439 26.1064ZM199.995 38.6309C199.099 38.6309 198.237 38.4727 197.411 38.1562C196.585 37.8398 195.855 37.3652 195.223 36.7324C194.607 36.082 194.115 35.2734 193.746 34.3066C193.377 33.3398 193.192 32.2061 193.192 30.9053C193.192 29.3232 193.421 27.917 193.878 26.6865C194.335 25.4385 194.915 24.3926 195.618 23.5488C196.339 22.6875 197.139 22.0371 198.018 21.5977C198.896 21.1406 199.758 20.9121 200.602 20.9121C201.691 20.9121 202.553 21.2725 203.186 21.9932C203.836 22.7139 204.161 23.6455 204.161 24.7881C204.161 25.7725 203.977 26.6689 203.607 27.4775C203.238 28.2686 202.746 28.9541 202.131 29.5342C201.533 30.0967 200.839 30.5361 200.048 30.8525C199.274 31.1689 198.466 31.3271 197.622 31.3271C197.218 31.3271 196.831 31.3096 196.462 31.2744C196.11 31.2217 195.794 31.1689 195.513 31.1162C195.618 32.2061 195.829 33.1465 196.146 33.9375C196.462 34.7285 196.857 35.3789 197.332 35.8887C197.807 36.3984 198.334 36.7764 198.914 37.0225C199.512 37.2686 200.127 37.3916 200.76 37.3916C201.551 37.3916 202.28 37.1982 202.948 36.8115C203.616 36.4248 204.231 35.9238 204.794 35.3086C205.356 34.6758 205.866 33.9551 206.323 33.1465C206.798 32.3379 207.22 31.5205 207.589 30.6943C207.958 29.8506 208.283 29.0332 208.564 28.2422C208.863 27.4336 209.127 26.7217 209.355 26.1064L210.384 26.3701C210.155 26.9502 209.883 27.6533 209.566 28.4795C209.268 29.3057 208.916 30.1758 208.512 31.0898C208.107 31.9863 207.633 32.8916 207.088 33.8057C206.543 34.7021 205.928 35.5107 205.242 36.2314C204.557 36.9346 203.774 37.5146 202.896 37.9717C202.034 38.4111 201.067 38.6309 199.995 38.6309ZM200.654 21.9404C200.004 21.9404 199.362 22.1514 198.729 22.5732C198.114 22.9775 197.561 23.54 197.068 24.2607C196.576 24.9814 196.172 25.834 195.855 26.8184C195.557 27.8027 195.407 28.8574 195.407 29.9824C195.636 30.0703 195.952 30.1494 196.356 30.2197C196.778 30.2725 197.288 30.2988 197.886 30.2988C198.519 30.2988 199.143 30.167 199.758 29.9033C200.391 29.6221 200.953 29.2441 201.445 28.7695C201.955 28.2773 202.359 27.6973 202.658 27.0293C202.975 26.3613 203.133 25.6318 203.133 24.8408C203.133 24.4541 203.08 24.085 202.975 23.7334C202.869 23.3818 202.711 23.0742 202.5 22.8105C202.289 22.5469 202.025 22.3359 201.709 22.1777C201.41 22.0195 201.059 21.9404 200.654 21.9404Z" fill="white"/>
</svg>
