<svg width="455" height="217" viewBox="0 0 455 217" fill="none" xmlns="http://www.w3.org/2000/svg">
<path d="M114.213 3.64258C111.993 4.43034 109.809 5.32552 107.66 6.32812C105.512 7.25911 103.435 8.26172 101.43 9.33594C105.44 12.7734 108.663 17.0345 111.098 22.1191C113.604 27.2038 114.857 33.0762 114.857 39.7363C114.857 45.179 114.141 50.1921 112.709 54.7754C111.348 59.3587 109.415 63.2975 106.908 66.5918C104.402 69.8861 101.43 72.4642 97.9922 74.3262C94.6263 76.1882 90.9382 77.1191 86.9277 77.1191C83.9915 77.1191 81.0911 76.6178 78.2266 75.6152C75.362 74.6126 72.7839 73.0729 70.4922 70.9961C68.2721 68.9193 66.446 66.3411 65.0137 63.2617C63.653 60.1107 62.9727 56.3867 62.9727 52.0898C62.9727 47.2917 63.7604 42.7441 65.3359 38.4473C66.9115 34.0788 69.0241 30.0684 71.6738 26.416C74.3952 22.6921 77.5462 19.3262 81.127 16.3184C84.7077 13.2389 88.4674 10.5534 92.4062 8.26172C90.3294 7.25911 88.0736 6.47135 85.6387 5.89844C83.2754 5.25391 80.8405 4.93164 78.334 4.93164C73.9655 4.93164 69.3105 5.75521 64.3691 7.40234C59.4277 9.04948 54.5221 11.5202 49.6523 14.8145C44.8542 18.1087 40.235 22.1908 35.7949 27.0605C31.4264 31.8587 27.5234 37.4805 24.0859 43.9258C20.7201 50.3711 18.0345 57.5684 16.0293 65.5176C14.0241 73.4668 13.0215 82.168 13.0215 91.6211C13.0215 101.217 14.418 110.312 17.2109 118.906C20.0039 127.5 24.0859 135.055 29.457 141.572C34.8281 148.089 41.4167 153.245 49.2227 157.041C57.1003 160.837 66.0879 162.734 76.1855 162.734C82.0579 162.734 87.7871 161.839 93.373 160.049C99.0306 158.33 104.366 155.931 109.379 152.852C114.392 149.701 119.011 145.977 123.236 141.68C127.462 137.311 131.114 132.585 134.193 127.5L137.523 129.434C134.086 135.807 129.932 141.501 125.062 146.514C120.264 151.527 114.929 155.788 109.057 159.297C103.184 162.806 96.918 165.492 90.2578 167.354C83.5977 169.215 76.7585 170.146 69.7402 170.146C59.6426 170.146 50.3327 168.356 41.8105 164.775C33.2884 161.266 25.9121 156.253 19.6816 149.736C13.5228 143.219 8.6888 135.378 5.17969 126.211C1.74219 116.973 0.0234375 106.696 0.0234375 95.3809C0.0234375 85.14 1.13346 75.7227 3.35352 67.1289C5.57357 58.4635 8.61719 50.6217 12.4844 43.6035C16.3516 36.5853 20.8275 30.4264 25.9121 25.127C31.0684 19.7559 36.5469 15.2799 42.3477 11.6992C48.1484 8.04688 54.1283 5.32552 60.2871 3.53516C66.446 1.67318 72.4616 0.742188 78.334 0.742188C81.5566 0.742188 84.7077 1.24349 87.7871 2.24609C90.9382 3.17708 93.8743 4.46615 96.5957 6.11328C99.4603 4.7526 102.325 3.64258 105.189 2.7832C108.054 1.92383 110.847 1.24349 113.568 0.742188L114.213 3.64258ZM110.668 39.5215C110.668 33.6491 109.486 28.3496 107.123 23.623C104.831 18.8249 101.68 14.8861 97.6699 11.8066C94.1608 14.0983 90.8665 16.748 87.7871 19.7559C84.7793 22.6921 82.1654 25.9863 79.9453 29.6387C77.7253 33.2194 75.9707 37.1582 74.6816 41.4551C73.4642 45.6803 72.8555 50.2279 72.8555 55.0977C72.8555 57.6758 73.1777 60.0749 73.8223 62.2949C74.5384 64.4434 75.541 66.3053 76.8301 67.8809C78.1191 69.4564 79.6947 70.7096 81.5566 71.6406C83.4186 72.5 85.4954 72.9297 87.7871 72.9297C91.6543 72.9297 95.0202 71.8197 97.8848 69.5996C100.749 67.3796 103.113 64.6224 104.975 61.3281C106.908 57.9622 108.34 54.3457 109.271 50.4785C110.202 46.5397 110.668 42.8874 110.668 39.5215ZM176.625 145.332C180.635 145.332 184.467 143.864 188.119 140.928C191.843 137.992 194.743 133.73 196.82 128.145H195.961C191.521 128.145 187.403 127.393 183.607 125.889C179.883 124.385 176.625 122.308 173.832 119.658C171.111 116.937 168.962 113.714 167.387 109.99C165.811 106.195 165.023 102.041 165.023 97.5293C165.023 95.0228 165.346 92.4805 165.99 89.9023C166.706 87.3242 167.781 85.0326 169.213 83.0273C170.645 80.9505 172.507 79.2676 174.799 77.9785C177.09 76.6895 179.812 76.0449 182.963 76.0449C185.541 76.0449 188.083 76.582 190.59 77.6562C193.096 78.6589 195.352 80.4134 197.357 82.9199C199.363 85.4264 200.974 88.8281 202.191 93.125C203.48 97.3503 204.125 102.721 204.125 109.238C204.125 111.673 204.018 114.108 203.803 116.543C203.588 118.906 203.194 121.234 202.621 123.525C205.414 123.024 207.885 122.129 210.033 120.84C212.253 119.551 214.187 118.011 215.834 116.221C217.553 114.359 219.057 112.282 220.346 109.99C221.635 107.627 222.816 105.12 223.891 102.471L228.08 103.545C226.576 107.627 224.822 111.1 222.816 113.965C220.883 116.829 218.77 119.229 216.479 121.162C214.258 123.096 211.895 124.6 209.389 125.674C206.954 126.676 204.411 127.357 201.762 127.715C200.759 131.224 199.434 134.518 197.787 137.598C196.14 140.677 194.135 143.363 191.771 145.654C189.408 147.946 186.651 149.772 183.5 151.133C180.421 152.422 176.947 153.066 173.08 153.066C169.857 153.066 166.599 152.422 163.305 151.133C160.082 149.772 157.146 147.731 154.496 145.01C151.918 142.217 149.805 138.743 148.158 134.59C146.583 130.365 145.795 125.352 145.795 119.551C145.795 115.755 146.225 112.031 147.084 108.379C148.015 104.727 149.268 101.289 150.844 98.0664C152.491 94.7721 154.424 91.7285 156.645 88.9355C158.865 86.071 161.264 83.6003 163.842 81.5234L165.453 84.209C163.806 85.7129 162.23 87.5749 160.727 89.7949C159.223 92.015 157.862 94.4857 156.645 97.207C155.427 99.8568 154.46 102.686 153.744 105.693C153.028 108.63 152.67 111.566 152.67 114.502C152.67 120.303 153.386 125.173 154.818 129.111C156.322 133.05 158.22 136.237 160.512 138.672C162.803 141.035 165.382 142.754 168.246 143.828C171.111 144.831 173.904 145.332 176.625 145.332ZM182.748 80.2344C180.814 80.2344 179.024 80.6641 177.377 81.5234C175.73 82.3112 174.298 83.4212 173.08 84.8535C171.863 86.2858 170.896 88.0046 170.18 90.0098C169.464 92.015 169.105 94.235 169.105 96.6699C169.105 100.895 169.822 104.691 171.254 108.057C172.686 111.423 174.62 114.287 177.055 116.65C179.561 119.014 182.462 120.84 185.756 122.129C189.05 123.346 192.595 123.955 196.391 123.955H198.432C199.005 121.735 199.398 119.408 199.613 116.973C199.828 114.538 199.936 111.888 199.936 109.023C199.792 103.509 199.219 98.9258 198.217 95.2734C197.286 91.5495 196.068 88.5775 194.564 86.3574C193.061 84.1374 191.27 82.5618 189.193 81.6309C187.188 80.6999 185.04 80.2344 182.748 80.2344ZM265.893 23.1934C265.893 28.6361 264.89 34.4368 262.885 40.5957C260.951 46.7546 258.409 53.1283 255.258 59.7168C252.107 66.3053 248.526 73.0371 244.516 79.9121C240.577 86.7155 236.638 93.4831 232.699 100.215C231.911 106.875 231.16 113.499 230.443 120.088C229.799 126.676 229.226 132.943 228.725 138.887C228.295 144.759 227.937 150.166 227.65 155.107C227.364 160.049 227.221 164.202 227.221 167.568C227.221 174.443 227.543 180.602 228.188 186.045C228.904 191.559 229.942 196.214 231.303 200.01C232.735 203.877 234.454 206.813 236.459 208.818C238.536 210.895 240.971 211.934 243.764 211.934C245.339 211.934 246.664 211.432 247.738 210.43C248.812 209.427 249.708 208.138 250.424 206.562C251.14 204.987 251.677 203.197 252.035 201.191C252.393 199.186 252.644 197.181 252.787 195.176C253.002 193.171 253.109 191.273 253.109 189.482C253.181 187.692 253.217 186.188 253.217 184.971C253.217 176.95 252.68 169.287 251.605 161.982C250.531 154.749 249.206 148.519 247.631 143.291H246.771C245.053 143.291 243.406 143.076 241.83 142.646C240.326 142.145 238.965 141.465 237.748 140.605C236.531 139.746 235.564 138.743 234.848 137.598C234.132 136.452 233.773 135.199 233.773 133.838C233.773 131.904 234.346 130.257 235.492 128.896C236.71 127.536 238.214 126.855 240.004 126.855C242.224 126.855 244.337 127.93 246.342 130.078C248.347 132.155 250.173 134.948 251.82 138.457C254.685 137.311 257.299 135.306 259.662 132.441C262.097 129.577 264.281 126.39 266.215 122.881C268.148 119.3 269.831 115.684 271.264 112.031C272.768 108.379 274.057 105.192 275.131 102.471L279.32 103.545C278.174 106.624 276.814 110.133 275.238 114.072C273.663 117.939 271.837 121.735 269.76 125.459C267.683 129.111 265.284 132.477 262.562 135.557C259.913 138.564 256.869 140.713 253.432 142.002C254.577 145.01 255.616 148.268 256.547 151.777C257.478 155.215 258.266 158.76 258.91 162.412C259.626 166.064 260.163 169.717 260.521 173.369C260.88 177.021 261.059 180.566 261.059 184.004C261.059 188.587 260.665 192.848 259.877 196.787C259.161 200.726 258.051 204.128 256.547 206.992C255.115 209.928 253.288 212.22 251.068 213.867C248.92 215.514 246.378 216.338 243.441 216.338C239.503 216.338 236.137 215.371 233.344 213.438C230.622 211.576 228.331 209.069 226.469 205.918C224.607 202.767 223.139 199.186 222.064 195.176C220.99 191.237 220.167 187.191 219.594 183.037C219.092 178.883 218.77 174.801 218.627 170.791C218.484 166.852 218.412 163.343 218.412 160.264C218.412 153.174 218.734 145.225 219.379 136.416C220.023 127.607 220.883 118.584 221.957 109.346C223.031 100.107 224.213 90.9766 225.502 81.9531C226.863 72.8581 228.188 64.4792 229.477 56.8164C230.837 49.082 232.126 42.3503 233.344 36.6211C234.561 30.8919 235.6 26.7741 236.459 24.2676C237.032 22.4772 237.784 20.651 238.715 18.7891C239.717 16.9271 240.899 15.2441 242.26 13.7402C243.62 12.2363 245.16 11.0189 246.879 10.0879C248.669 9.1569 250.71 8.69141 253.002 8.69141C256.941 8.69141 260.056 9.98047 262.348 12.5586C264.711 15.1367 265.893 18.6816 265.893 23.1934ZM241.723 32.002C241.365 33.8639 240.863 36.6927 240.219 40.4883C239.646 44.2122 239.001 48.6523 238.285 53.8086C237.641 58.8932 236.924 64.5508 236.137 70.7812C235.349 76.9401 234.561 83.3138 233.773 89.9023C237.712 83.1706 241.365 76.7611 244.73 70.6738C248.096 64.515 250.997 58.6784 253.432 53.1641C255.938 47.5781 257.908 42.3503 259.34 37.4805C260.772 32.5391 261.488 27.8483 261.488 23.4082C261.488 20.5436 260.844 18.0729 259.555 15.9961C258.337 13.9193 256.296 12.8809 253.432 12.8809C251.355 12.8809 249.6 13.597 248.168 15.0293C246.807 16.4616 245.697 18.1803 244.838 20.1855C243.979 22.1908 243.298 24.3034 242.797 26.5234C242.367 28.6719 242.009 30.498 241.723 32.002ZM238.178 133.623C238.178 134.984 239.001 136.273 240.648 137.49C242.367 138.636 244.337 139.281 246.557 139.424C245.554 136.702 244.516 134.626 243.441 133.193C242.439 131.761 241.436 131.045 240.434 131.045C239.861 131.045 239.324 131.26 238.822 131.689C238.393 132.119 238.178 132.764 238.178 133.623ZM317.24 23.1934C317.24 28.6361 316.238 34.4368 314.232 40.5957C312.299 46.7546 309.757 53.1283 306.605 59.7168C303.454 66.3053 299.874 73.0371 295.863 79.9121C291.924 86.7155 287.986 93.4831 284.047 100.215C283.259 106.875 282.507 113.499 281.791 120.088C281.146 126.676 280.574 132.943 280.072 138.887C279.643 144.759 279.285 150.166 278.998 155.107C278.712 160.049 278.568 164.202 278.568 167.568C278.568 174.443 278.891 180.602 279.535 186.045C280.251 191.559 281.29 196.214 282.65 200.01C284.083 203.877 285.801 206.813 287.807 208.818C289.883 210.895 292.318 211.934 295.111 211.934C296.687 211.934 298.012 211.432 299.086 210.43C300.16 209.427 301.055 208.138 301.771 206.562C302.488 204.987 303.025 203.197 303.383 201.191C303.741 199.186 303.992 197.181 304.135 195.176C304.35 193.171 304.457 191.273 304.457 189.482C304.529 187.692 304.564 186.188 304.564 184.971C304.564 176.95 304.027 169.287 302.953 161.982C301.879 154.749 300.554 148.519 298.979 143.291H298.119C296.4 143.291 294.753 143.076 293.178 142.646C291.674 142.145 290.313 141.465 289.096 140.605C287.878 139.746 286.911 138.743 286.195 137.598C285.479 136.452 285.121 135.199 285.121 133.838C285.121 131.904 285.694 130.257 286.84 128.896C288.057 127.536 289.561 126.855 291.352 126.855C293.572 126.855 295.684 127.93 297.689 130.078C299.695 132.155 301.521 134.948 303.168 138.457C306.033 137.311 308.646 135.306 311.01 132.441C313.445 129.577 315.629 126.39 317.562 122.881C319.496 119.3 321.179 115.684 322.611 112.031C324.115 108.379 325.404 105.192 326.479 102.471L330.668 103.545C329.522 106.624 328.161 110.133 326.586 114.072C325.01 117.939 323.184 121.735 321.107 125.459C319.031 129.111 316.632 132.477 313.91 135.557C311.26 138.564 308.217 140.713 304.779 142.002C305.925 145.01 306.964 148.268 307.895 151.777C308.826 155.215 309.613 158.76 310.258 162.412C310.974 166.064 311.511 169.717 311.869 173.369C312.227 177.021 312.406 180.566 312.406 184.004C312.406 188.587 312.012 192.848 311.225 196.787C310.508 200.726 309.398 204.128 307.895 206.992C306.462 209.928 304.636 212.22 302.416 213.867C300.268 215.514 297.725 216.338 294.789 216.338C290.85 216.338 287.484 215.371 284.691 213.438C281.97 211.576 279.678 209.069 277.816 205.918C275.954 202.767 274.486 199.186 273.412 195.176C272.338 191.237 271.514 187.191 270.941 183.037C270.44 178.883 270.118 174.801 269.975 170.791C269.831 166.852 269.76 163.343 269.76 160.264C269.76 153.174 270.082 145.225 270.727 136.416C271.371 127.607 272.23 118.584 273.305 109.346C274.379 100.107 275.561 90.9766 276.85 81.9531C278.21 72.8581 279.535 64.4792 280.824 56.8164C282.185 49.082 283.474 42.3503 284.691 36.6211C285.909 30.8919 286.947 26.7741 287.807 24.2676C288.38 22.4772 289.132 20.651 290.062 18.7891C291.065 16.9271 292.247 15.2441 293.607 13.7402C294.968 12.2363 296.508 11.0189 298.227 10.0879C300.017 9.1569 302.058 8.69141 304.35 8.69141C308.288 8.69141 311.404 9.98047 313.695 12.5586C316.059 15.1367 317.24 18.6816 317.24 23.1934ZM293.07 32.002C292.712 33.8639 292.211 36.6927 291.566 40.4883C290.993 44.2122 290.349 48.6523 289.633 53.8086C288.988 58.8932 288.272 64.5508 287.484 70.7812C286.697 76.9401 285.909 83.3138 285.121 89.9023C289.06 83.1706 292.712 76.7611 296.078 70.6738C299.444 64.515 302.344 58.6784 304.779 53.1641C307.286 47.5781 309.255 42.3503 310.688 37.4805C312.12 32.5391 312.836 27.8483 312.836 23.4082C312.836 20.5436 312.191 18.0729 310.902 15.9961C309.685 13.9193 307.644 12.8809 304.779 12.8809C302.702 12.8809 300.948 13.597 299.516 15.0293C298.155 16.4616 297.045 18.1803 296.186 20.1855C295.326 22.1908 294.646 24.3034 294.145 26.5234C293.715 28.6719 293.357 30.498 293.07 32.002ZM289.525 133.623C289.525 134.984 290.349 136.273 291.996 137.49C293.715 138.636 295.684 139.281 297.904 139.424C296.902 136.702 295.863 134.626 294.789 133.193C293.786 131.761 292.784 131.045 291.781 131.045C291.208 131.045 290.671 131.26 290.17 131.689C289.74 132.119 289.525 132.764 289.525 133.623ZM350.111 153.496C346.459 153.496 342.95 152.852 339.584 151.562C336.218 150.273 333.246 148.34 330.668 145.762C328.161 143.112 326.156 139.818 324.652 135.879C323.148 131.94 322.396 127.321 322.396 122.021C322.396 115.576 323.327 109.847 325.189 104.834C327.051 99.7493 329.415 95.4883 332.279 92.0508C335.215 88.5417 338.474 85.8919 342.055 84.1016C345.635 82.2396 349.145 81.3086 352.582 81.3086C357.022 81.3086 360.531 82.7767 363.109 85.7129C365.759 88.6491 367.084 92.4447 367.084 97.0996C367.084 101.11 366.332 104.762 364.828 108.057C363.324 111.279 361.319 114.072 358.812 116.436C356.378 118.727 353.549 120.518 350.326 121.807C347.175 123.096 343.881 123.74 340.443 123.74C338.796 123.74 337.221 123.669 335.717 123.525C334.285 123.311 332.995 123.096 331.85 122.881C332.279 127.321 333.139 131.152 334.428 134.375C335.717 137.598 337.328 140.247 339.262 142.324C341.195 144.401 343.344 145.941 345.707 146.943C348.142 147.946 350.648 148.447 353.227 148.447C356.449 148.447 359.421 147.66 362.143 146.084C364.864 144.508 367.37 142.467 369.662 139.961C371.954 137.383 374.031 134.447 375.893 131.152C377.826 127.858 379.545 124.528 381.049 121.162C382.553 117.725 383.878 114.395 385.023 111.172C386.241 107.878 387.315 104.977 388.246 102.471L392.436 103.545C391.505 105.908 390.395 108.773 389.105 112.139C387.888 115.505 386.456 119.049 384.809 122.773C383.161 126.426 381.228 130.114 379.008 133.838C376.788 137.49 374.281 140.785 371.488 143.721C368.695 146.585 365.508 148.949 361.928 150.811C358.419 152.601 354.48 153.496 350.111 153.496ZM352.797 85.498C350.147 85.498 347.533 86.3574 344.955 88.0762C342.449 89.7233 340.193 92.015 338.188 94.9512C336.182 97.8874 334.535 101.361 333.246 105.371C332.029 109.382 331.42 113.678 331.42 118.262C332.351 118.62 333.64 118.942 335.287 119.229C337.006 119.443 339.083 119.551 341.518 119.551C344.096 119.551 346.638 119.014 349.145 117.939C351.723 116.794 354.014 115.254 356.02 113.32C358.096 111.315 359.743 108.952 360.961 106.23C362.25 103.509 362.895 100.537 362.895 97.3145C362.895 95.7389 362.68 94.235 362.25 92.8027C361.82 91.3704 361.176 90.1172 360.316 89.043C359.457 87.9688 358.383 87.1094 357.094 86.4648C355.876 85.8203 354.444 85.498 352.797 85.498ZM411.771 153.496C408.119 153.496 404.61 152.852 401.244 151.562C397.878 150.273 394.906 148.34 392.328 145.762C389.822 143.112 387.816 139.818 386.312 135.879C384.809 131.94 384.057 127.321 384.057 122.021C384.057 115.576 384.988 109.847 386.85 104.834C388.712 99.7493 391.075 95.4883 393.939 92.0508C396.876 88.5417 400.134 85.8919 403.715 84.1016C407.296 82.2396 410.805 81.3086 414.242 81.3086C418.682 81.3086 422.191 82.7767 424.77 85.7129C427.419 88.6491 428.744 92.4447 428.744 97.0996C428.744 101.11 427.992 104.762 426.488 108.057C424.984 111.279 422.979 114.072 420.473 116.436C418.038 118.727 415.209 120.518 411.986 121.807C408.835 123.096 405.541 123.74 402.104 123.74C400.456 123.74 398.881 123.669 397.377 123.525C395.945 123.311 394.656 123.096 393.51 122.881C393.939 127.321 394.799 131.152 396.088 134.375C397.377 137.598 398.988 140.247 400.922 142.324C402.855 144.401 405.004 145.941 407.367 146.943C409.802 147.946 412.309 148.447 414.887 148.447C418.109 148.447 421.081 147.66 423.803 146.084C426.524 144.508 429.031 142.467 431.322 139.961C433.614 137.383 435.691 134.447 437.553 131.152C439.486 127.858 441.205 124.528 442.709 121.162C444.213 117.725 445.538 114.395 446.684 111.172C447.901 107.878 448.975 104.977 449.906 102.471L454.096 103.545C453.165 105.908 452.055 108.773 450.766 112.139C449.548 115.505 448.116 119.049 446.469 122.773C444.822 126.426 442.888 130.114 440.668 133.838C438.448 137.49 435.941 140.785 433.148 143.721C430.355 146.585 427.169 148.949 423.588 150.811C420.079 152.601 416.14 153.496 411.771 153.496ZM414.457 85.498C411.807 85.498 409.193 86.3574 406.615 88.0762C404.109 89.7233 401.853 92.015 399.848 94.9512C397.842 97.8874 396.195 101.361 394.906 105.371C393.689 109.382 393.08 113.678 393.08 118.262C394.011 118.62 395.3 118.942 396.947 119.229C398.666 119.443 400.743 119.551 403.178 119.551C405.756 119.551 408.298 119.014 410.805 117.939C413.383 116.794 415.674 115.254 417.68 113.32C419.757 111.315 421.404 108.952 422.621 106.23C423.91 103.509 424.555 100.537 424.555 97.3145C424.555 95.7389 424.34 94.235 423.91 92.8027C423.48 91.3704 422.836 90.1172 421.977 89.043C421.117 87.9688 420.043 87.1094 418.754 86.4648C417.536 85.8203 416.104 85.498 414.457 85.498Z" fill="white"/>
</svg>
